<svg xmlns="http://www.w3.org/2000/svg" width="1200" height="720" viewBox="0 0 1200 720">
      <defs>
        <linearGradient id="top" x1="0" y1="0" x2="0" y2="1">
          <stop offset="0" stop-color="#ffffff"/>
          <stop offset="1" stop-color="#f4f6fb"/>
        </linearGradient>
        <filter id="shadow" x="-20%" y="-20%" width="140%" height="160%">
          <feDropShadow dx="0" dy="18" stdDeviation="18" flood-color="rgba(0,0,0,.12)"/>
        </filter>
      </defs>
      <rect x="0" y="0" width="1200" height="720" fill="#f7f7fb"/>
      <!-- Browser frame -->
      <rect x="48" y="44" width="1104" height="632" rx="18" fill="url(#top)" stroke="#e5e7eb" filter="url(#shadow)"/>
      <rect x="48" y="44" width="1104" height="54" rx="18" fill="#ffffff" stroke="#e5e7eb"/>
      <circle cx="78" cy="71" r="6" fill="#ff5f57"/><circle cx="98" cy="71" r="6" fill="#febc2e"/><circle cx="118" cy="71" r="6" fill="#28c840"/>
      <rect x="150" y="58" width="900" height="26" rx="10" fill="#f3f4f6" stroke="#e5e7eb"/>
      <text x="168" y="76" font-size="12" fill="#6b7280">PrimeDesk • Indicadores</text>

      <text x="84" y="132" font-size="13" fill="#6b7280" font-weight="700">Relatórios de atendimento para gestão</text>
      
        <!-- filters -->
        <rect x="84" y="208" width="1032" height="102" rx="16" fill="#ffffff" stroke="#e5e7eb"/>
        <text x="110" y="242" font-size="12" fill="#6b7280" font-weight="700">Busca (nome ou CPF)</text>
        <rect x="110" y="252" width="440" height="40" rx="12" fill="#fff" stroke="#e5e7eb"/>
        <text x="130" y="278" font-size="14" fill="#6b7280">Ex.: Maria / 123...</text>

        <text x="570" y="242" font-size="12" fill="#6b7280" font-weight="700">Status</text>
        <rect x="570" y="252" width="190" height="40" rx="12" fill="#fff" stroke="#e5e7eb"/>
        <text x="590" y="278" font-size="14" fill="#0f172a">Todos ▾</text>

        <text x="780" y="242" font-size="12" fill="#6b7280" font-weight="700">Tipo</text>
        <rect x="780" y="252" width="220" height="40" rx="12" fill="#fff" stroke="#e5e7eb"/>
        <text x="800" y="278" font-size="14" fill="#0f172a">Todos ▾</text>

        <rect x="1016" y="252" width="100" height="40" rx="999" fill="#111827"/>
        <text x="1066" y="278" font-size="14" fill="#fff" text-anchor="middle" font-weight="700">Filtrar</text>

        <!-- table -->
        <text x="84" y="178" font-size="18" fill="#0f172a" font-weight="800">Indicadores e exportação</text>
        <rect x="954" y="150" width="162" height="38" rx="999" fill="#0B5BD3"/>
        <text x="1035" y="175" font-size="14" fill="#fff" text-anchor="middle" font-weight="700">Novo atendimento</text>

        
            <g>
              <rect x="84" y="334" width="1032" height="56" rx="10" fill="#ffffff" stroke="#e5e7eb"/>
              <text x="110" y="368" font-size="16" fill="#0f172a" font-weight="700">AT-2026-001245</text>
              <text x="280" y="368" font-size="15" fill="#6b7280">26/01/2026 09:12</text>
              <text x="460" y="368" font-size="15" fill="#0f172a" font-weight="600">MARIA APARECIDA</text>
              <text x="730" y="368" font-size="15" fill="#6b7280">123.***.***-10</text>
              <rect x="900" y="350" width="120" height="28" rx="999" fill="#fef3c7"/>
              <text x="960" y="369" font-size="13" fill="#92400e" text-anchor="middle" font-weight="700">em análise</text>
              <text x="1050" y="368" font-size="14" fill="#0B5BD3" font-weight="700">Ver</text>
            </g>
            
            <g>
              <rect x="84" y="398" width="1032" height="56" rx="10" fill="#ffffff" stroke="#e5e7eb"/>
              <text x="110" y="432" font-size="16" fill="#0f172a" font-weight="700">AT-2026-001100</text>
              <text x="280" y="432" font-size="15" fill="#6b7280">15/01/2026 11:05</text>
              <text x="460" y="432" font-size="15" fill="#0f172a" font-weight="600">JOÃO DA SILVA</text>
              <text x="730" y="432" font-size="15" fill="#6b7280">987.***.***-00</text>
              <rect x="900" y="414" width="120" height="28" rx="999" fill="#d1fae5"/>
              <text x="960" y="433" font-size="13" fill="#065f46" text-anchor="middle" font-weight="700">finalizado</text>
              <text x="1050" y="432" font-size="14" fill="#0B5BD3" font-weight="700">Ver</text>
            </g>
            
            <g>
              <rect x="84" y="462" width="1032" height="56" rx="10" fill="#ffffff" stroke="#e5e7eb"/>
              <text x="110" y="496" font-size="16" fill="#0f172a" font-weight="700">AT-2026-000980</text>
              <text x="280" y="496" font-size="15" fill="#6b7280">10/01/2026 08:22</text>
              <text x="460" y="496" font-size="15" fill="#0f172a" font-weight="600">ANA CLARA</text>
              <text x="730" y="496" font-size="15" fill="#6b7280">—</text>
              <rect x="900" y="478" width="120" height="28" rx="999" fill="#fef3c7"/>
              <text x="960" y="497" font-size="13" fill="#92400e" text-anchor="middle" font-weight="700">aberto</text>
              <text x="1050" y="496" font-size="14" fill="#0B5BD3" font-weight="700">Ver</text>
            </g>
            
            <g>
              <rect x="84" y="526" width="1032" height="56" rx="10" fill="#ffffff" stroke="#e5e7eb"/>
              <text x="110" y="560" font-size="16" fill="#0f172a" font-weight="700">2026-000120</text>
              <text x="280" y="560" font-size="15" fill="#6b7280">21/01/2026 15:05</text>
              <text x="460" y="560" font-size="15" fill="#0f172a" font-weight="600">CARLOS EDUARDO</text>
              <text x="730" y="560" font-size="15" fill="#6b7280">456.***.***-22</text>
              <rect x="900" y="542" width="120" height="28" rx="999" fill="#d1fae5"/>
              <text x="960" y="561" font-size="13" fill="#065f46" text-anchor="middle" font-weight="700">finalizado</text>
              <text x="1050" y="560" font-size="14" fill="#0B5BD3" font-weight="700">Ver</text>
            </g>
            
        
    </svg>