<svg xmlns="http://www.w3.org/2000/svg" width="220" height="64" viewBox="0 0 220 64" role="img" aria-label="Logo padrão">
  <defs>
    <linearGradient id="g" x1="0" y1="0" x2="1" y2="1">
      <stop offset="0" stop-color="#111827"/>
      <stop offset="1" stop-color="#334155"/>
    </linearGradient>
  </defs>

  <rect x="0" y="0" width="220" height="64" rx="14" fill="url(#g)"/>
  <circle cx="34" cy="32" r="14" fill="#ffffff" opacity="0.15"/>
  <path d="M26 34c0-6 5-11 11-11 3 0 6 1 8 3l-3 3c-1-1-3-2-5-2-4 0-7 3-7 7s3 7 7 7c2 0 4-1 5-2l3 3c-2 2-5 3-8 3-6 0-11-5-11-11z" fill="#ffffff" opacity="0.95"/>
  <text x="64" y="38" font-family="Arial, Helvetica, sans-serif" font-size="22" font-weight="700" fill="#ffffff">SMAS</text>
  <text x="64" y="54" font-family="Arial, Helvetica, sans-serif" font-size="12" fill="#e5e7eb" opacity="0.95">Atendimentos</text>
</svg>
